<svg width="227" height="227" viewBox="0 0 227 227" fill="none" xmlns="http://www.w3.org/2000/svg">
<g opacity="0.8">
<path d="M68.1 136.2C93.1737 136.2 113.5 115.874 113.5 90.8C113.5 65.7263 93.1737 45.4 68.1 45.4C43.0263 45.4 22.7 65.7263 22.7 90.8C22.7 115.874 43.0263 136.2 68.1 136.2Z" fill="#FF6B6B"/>
<path d="M113.5 136.2C138.574 136.2 158.9 115.874 158.9 90.8C158.9 65.7263 138.574 45.4 113.5 45.4C88.4263 45.4 68.1 65.7263 68.1 90.8C68.1 115.874 88.4263 136.2 113.5 136.2Z" fill="#4ECDC4"/>
<path d="M158.9 136.2C183.974 136.2 204.3 115.874 204.3 90.8C204.3 65.7263 183.974 45.4 158.9 45.4C133.826 45.4 113.5 65.7263 113.5 90.8C113.5 115.874 133.826 136.2 158.9 136.2Z" fill="#45B7D1"/>
</g>
<path d="M95.0542 157.203H92.8766C92.8368 156.921 92.7556 156.671 92.633 156.452C92.5104 156.23 92.3529 156.041 92.1607 155.885C91.9685 155.73 91.7464 155.61 91.4945 155.527C91.2459 155.445 90.9758 155.403 90.6841 155.403C90.1571 155.403 89.6981 155.534 89.307 155.796C88.9159 156.054 88.6126 156.432 88.3972 156.929C88.1818 157.423 88.074 158.023 88.074 158.729C88.074 159.455 88.1818 160.065 88.3972 160.559C88.6159 161.052 88.9209 161.425 89.312 161.677C89.7031 161.929 90.1555 162.055 90.6692 162.055C90.9576 162.055 91.2244 162.017 91.4696 161.941C91.7182 161.865 91.9386 161.753 92.1309 161.608C92.3231 161.459 92.4822 161.278 92.6081 161.066C92.7374 160.854 92.8269 160.612 92.8766 160.34L95.0542 160.35C94.9978 160.817 94.8569 161.268 94.6316 161.702C94.4095 162.133 94.1096 162.519 93.7317 162.86C93.3572 163.199 92.9097 163.467 92.3894 163.666C91.8723 163.861 91.2873 163.959 90.6344 163.959C89.7263 163.959 88.9142 163.754 88.1983 163.343C87.4857 162.932 86.9223 162.337 86.508 161.558C86.097 160.779 85.8915 159.836 85.8915 158.729C85.8915 157.619 86.1003 156.674 86.5179 155.895C86.9355 155.116 87.5023 154.523 88.2182 154.115C88.9341 153.704 89.7395 153.499 90.6344 153.499C91.2244 153.499 91.7712 153.582 92.275 153.748C92.7821 153.913 93.2312 154.155 93.6223 154.473C94.0134 154.788 94.3316 155.174 94.5769 155.632C94.8255 156.089 94.9846 156.613 95.0542 157.203ZM100.008 163.969C99.2361 163.969 98.5682 163.805 98.0048 163.477C97.4447 163.146 97.0121 162.685 96.7072 162.095C96.4023 161.502 96.2498 160.814 96.2498 160.032C96.2498 159.243 96.4023 158.553 96.7072 157.963C97.0121 157.37 97.4447 156.909 98.0048 156.581C98.5682 156.25 99.2361 156.084 100.008 156.084C100.781 156.084 101.447 156.25 102.007 156.581C102.57 156.909 103.005 157.37 103.309 157.963C103.614 158.553 103.767 159.243 103.767 160.032C103.767 160.814 103.614 161.502 103.309 162.095C103.005 162.685 102.57 163.146 102.007 163.477C101.447 163.805 100.781 163.969 100.008 163.969ZM100.018 162.329C100.37 162.329 100.663 162.229 100.898 162.03C101.134 161.828 101.311 161.553 101.43 161.205C101.553 160.857 101.614 160.461 101.614 160.017C101.614 159.573 101.553 159.177 101.43 158.829C101.311 158.481 101.134 158.205 100.898 158.003C100.663 157.801 100.37 157.7 100.018 157.7C99.6636 157.7 99.3654 157.801 99.1234 158.003C98.8848 158.205 98.7041 158.481 98.5815 158.829C98.4622 159.177 98.4025 159.573 98.4025 160.017C98.4025 160.461 98.4622 160.857 98.5815 161.205C98.7041 161.553 98.8848 161.828 99.1234 162.03C99.3654 162.229 99.6636 162.329 100.018 162.329ZM107.262 153.638V163.82H105.144V153.638H107.262ZM112.409 163.969C111.636 163.969 110.969 163.805 110.405 163.477C109.845 163.146 109.413 162.685 109.108 162.095C108.803 161.502 108.65 160.814 108.65 160.032C108.65 159.243 108.803 158.553 109.108 157.963C109.413 157.37 109.845 156.909 110.405 156.581C110.969 156.25 111.636 156.084 112.409 156.084C113.181 156.084 113.847 156.25 114.407 156.581C114.971 156.909 115.405 157.37 115.71 157.963C116.015 158.553 116.167 159.243 116.167 160.032C116.167 160.814 116.015 161.502 115.71 162.095C115.405 162.685 114.971 163.146 114.407 163.477C113.847 163.805 113.181 163.969 112.409 163.969ZM112.419 162.329C112.77 162.329 113.063 162.229 113.299 162.03C113.534 161.828 113.711 161.553 113.831 161.205C113.953 160.857 114.015 160.461 114.015 160.017C114.015 159.573 113.953 159.177 113.831 158.829C113.711 158.481 113.534 158.205 113.299 158.003C113.063 157.801 112.77 157.7 112.419 157.7C112.064 157.7 111.766 157.801 111.524 158.003C111.285 158.205 111.105 158.481 110.982 158.829C110.863 159.177 110.803 159.573 110.803 160.017C110.803 160.461 110.863 160.857 110.982 161.205C111.105 161.553 111.285 161.828 111.524 162.03C111.766 162.229 112.064 162.329 112.419 162.329ZM117.544 163.82V156.184H119.598V157.516H119.677C119.816 157.042 120.05 156.684 120.378 156.442C120.706 156.197 121.084 156.074 121.512 156.074C121.618 156.074 121.732 156.081 121.855 156.094C121.977 156.107 122.085 156.126 122.178 156.149V158.028C122.078 157.998 121.941 157.972 121.765 157.949C121.59 157.925 121.429 157.914 121.283 157.914C120.971 157.914 120.693 157.982 120.448 158.118C120.206 158.25 120.014 158.436 119.871 158.674C119.732 158.913 119.662 159.188 119.662 159.5V163.82H117.544ZM123.313 163.82V153.638H125.465V158.128H125.6L129.264 153.638H131.844L128.066 158.197L131.889 163.82H129.313L126.524 159.634L125.465 160.927V163.82H123.313ZM133.404 163.82V156.184H135.522V163.82H133.404ZM134.468 155.199C134.153 155.199 133.883 155.095 133.657 154.886C133.435 154.674 133.324 154.42 133.324 154.125C133.324 153.834 133.435 153.584 133.657 153.375C133.883 153.163 134.153 153.057 134.468 153.057C134.783 153.057 135.051 153.163 135.273 153.375C135.498 153.584 135.611 153.834 135.611 154.125C135.611 154.42 135.498 154.674 135.273 154.886C135.051 155.095 134.783 155.199 134.468 155.199ZM141.28 156.184V157.775H136.681V156.184H141.28ZM137.725 154.354H139.843V161.473C139.843 161.669 139.873 161.821 139.933 161.931C139.992 162.037 140.075 162.111 140.181 162.155C140.291 162.198 140.417 162.219 140.559 162.219C140.659 162.219 140.758 162.211 140.857 162.194C140.957 162.174 141.033 162.159 141.086 162.15L141.419 163.726C141.313 163.759 141.164 163.797 140.972 163.84C140.78 163.886 140.546 163.914 140.271 163.924C139.76 163.944 139.313 163.876 138.928 163.721C138.547 163.565 138.251 163.323 138.039 162.995C137.826 162.667 137.722 162.252 137.725 161.752V154.354Z" fill="#333333"/>
<g opacity="0.9">
<path d="M56.75 72.64C59.2574 72.64 61.29 70.6074 61.29 68.1C61.29 65.5926 59.2574 63.56 56.75 63.56C54.2426 63.56 52.21 65.5926 52.21 68.1C52.21 70.6074 54.2426 72.64 56.75 72.64Z" fill="#FFD700"/>
<path d="M170.25 83.99C172.757 83.99 174.79 81.9574 174.79 79.45C174.79 76.9426 172.757 74.91 170.25 74.91C167.743 74.91 165.71 76.9426 165.71 79.45C165.71 81.9574 167.743 83.99 170.25 83.99Z" fill="#FFD700"/>
<path d="M113.5 61.29C116.007 61.29 118.04 59.2574 118.04 56.75C118.04 54.2426 116.007 52.21 113.5 52.21C110.993 52.21 108.96 54.2426 108.96 56.75C108.96 59.2574 110.993 61.29 113.5 61.29Z" fill="#FFD700"/>
</g>
</svg>
